<svg width="760" height="620" viewBox="0 0 760 620" fill="none" xmlns="http://www.w3.org/2000/svg">
  <rect width="760" height="620" rx="40" fill="#111111"/>
  <circle cx="610" cy="95" r="140" fill="#FDB913" opacity="0.95"/>
  <circle cx="115" cy="520" r="170" fill="#FDB913" opacity="0.16"/>

  <g opacity="0.12">
    <path d="M0 110H760" stroke="white"/>
    <path d="M0 220H760" stroke="white"/>
    <path d="M0 330H760" stroke="white"/>
    <path d="M0 440H760" stroke="white"/>
    <path d="M0 550H760" stroke="white"/>
    <path d="M110 0V620" stroke="white"/>
    <path d="M220 0V620" stroke="white"/>
    <path d="M330 0V620" stroke="white"/>
    <path d="M440 0V620" stroke="white"/>
    <path d="M550 0V620" stroke="white"/>
    <path d="M660 0V620" stroke="white"/>
  </g>

  <rect x="82" y="88" width="420" height="330" rx="32" fill="white"/>
  <rect x="112" y="126" width="190" height="24" rx="12" fill="#111111"/>
  <rect x="112" y="170" width="320" height="16" rx="8" fill="#E8E8E8"/>
  <rect x="112" y="202" width="260" height="16" rx="8" fill="#E8E8E8"/>
  <rect x="112" y="234" width="300" height="16" rx="8" fill="#E8E8E8"/>

  <rect x="112" y="292" width="150" height="54" rx="27" fill="#FDB913"/>
  <rect x="282" y="292" width="150" height="54" rx="27" fill="#111111"/>

  <g transform="translate(420 240)">
    <circle cx="95" cy="95" r="95" fill="#FDB913"/>
    <path d="M130 36c-22-10-49-6-67 13-19 19-23 46-13 67L20 146c-8 8-8 22 0 30s22 8 30 0l30-30c21 10 48 6 67-13 19-19 23-46 13-67l-43 43-32-32 45-41Z" fill="#111111"/>
  </g>

  <path d="M124 465H570" stroke="#FDB913" stroke-width="18" stroke-linecap="round"/>
  <path d="M184 505H646" stroke="white" stroke-width="18" stroke-linecap="round" opacity="0.9"/>
  <path d="M124 545H480" stroke="white" stroke-width="18" stroke-linecap="round" opacity="0.45"/>

  <text x="88" y="62" font-family="Arial, Helvetica, sans-serif" font-size="28" font-weight="900" fill="#FDB913">Wolverhampton Plumbing Enquiries</text>
</svg>