<svg width="512" height="512" viewBox="0 0 512 512" fill="none" xmlns="http://www.w3.org/2000/svg">
  <rect width="512" height="512" rx="96" fill="#111111"/>
  <circle cx="256" cy="256" r="178" fill="#FDB913"/>
  <circle cx="256" cy="256" r="126" fill="#111111"/>
  <path d="M323 153c-25-12-56-7-77 14-21 21-26 52-14 77L144 332c-10 10-10 27 0 37 10 10 27 10 37 0l88-88c25 12 56 7 77-14 21-21 26-52 14-77l-51 51-38-38 52-50Z" fill="#FDB913"/>
  <path d="M167 348l43-43" stroke="#111111" stroke-width="22" stroke-linecap="round"/>
</svg>